# xmcd CD database file
#
# Track frame offsets:
#	150
#	15162
#	28600
#	41097
#	50947
#	63172
#	76565
#	92537
#	107065
#	121300
#	131737
#	145395
#	157810
#	182102
#
# Disc length: 2655 seconds
#
# Revision: 1
# Processed by: cddbd v1.4PL0 Copyright (c) Steve Scherf et al.
# Submitted via: CDex 1.51
#
DISCID=ae0a5d0e
DTITLE=Various Artist - Gran centenario Vol 2, El Mejor Mariachi de Mexico
DYEAR=1999
DGENRE=Merengue
TTITLE0=Alejandro Gallardo - caminos de guanajuato
TTITLE1=Gerardo Zermeno - a ley del monte
TTITLE2=Juan Quezada - serenata huasteca
TTITLE3=Tonatzin Tejeda - que chula es puebla
TTITLE4=Gerardo Zermeno - de que manera te olivido
TTITLE5=Tonatzin Tejeda - corrido de chihuahua
TTITLE6=Mariachi Arriba Juarez - como quien pierde una estrella
TTITLE7=Javier Villa - el hidalguense
TTITLE8=Gerardo Zermeno - sombras
TTITLE9=Alejandro Zermeno - por los caminos del sur
TTITLE10=Gerardo Zermeno - aprendiste a volar
TTITLE11=Gerardo Zermeno - tu camino y el mio
TTITLE12=Mariachi Arriba Juarez - amor eterno
TTITLE13=Gerardo Zermeno - or tu malidito amor
EXTD=YEAR: 1999
EXTT0=
EXTT1=
EXTT2=
EXTT3=
EXTT4=
EXTT5=
EXTT6=
EXTT7=
EXTT8=
EXTT9=
EXTT10=
EXTT11=
EXTT12=
EXTT13=
PLAYORDER=
